<?xml version="1.0" encoding="UTF-8" standalone="no"?>
<svg
   width="1000"
   height="1000"
   viewBox="0 0 264.583 264.583"
   version="1.1"
   id="svg16"
   sodipodi:docname="title-min.svg"
   inkscape:version="1.1 (c68e22c387, 2021-05-23)"
   xmlns:inkscape="http://www.inkscape.org/namespaces/inkscape"
   xmlns:sodipodi="http://sodipodi.sourceforge.net/DTD/sodipodi-0.dtd"
   xmlns="http://www.w3.org/2000/svg"
   xmlns:svg="http://www.w3.org/2000/svg">
  <defs
     id="defs20" />
  <sodipodi:namedview
     id="namedview18"
     pagecolor="#ffffff"
     bordercolor="#666666"
     borderopacity="1.0"
     inkscape:pageshadow="2"
     inkscape:pageopacity="0.0"
     inkscape:pagecheckerboard="0"
     showgrid="false"
     inkscape:zoom="0.832"
     inkscape:cx="499.39904"
     inkscape:cy="500.60096"
     inkscape:window-width="1920"
     inkscape:window-height="1017"
     inkscape:window-x="1912"
     inkscape:window-y="-8"
     inkscape:window-maximized="1"
     inkscape:current-layer="svg16" />
  <path
     style="opacity:.995;fill:#000;fill-rule:evenodd;stroke-width:.264584;stroke-linecap:square;stroke-opacity:.5"
     d="M0 0h264.583v264.583H0z"
     id="background" />
  <g
     aria-label="SYNC"
     style="font-size:16.9333px;line-height:1.56;font-family:consolas;-inkscape-font-specification:'consolas, Normal';letter-spacing:17.2773px;fill:#fff;stroke-width:.264583"
     id="line3">
    <path
       d="M16.71 68.69q0 .77-.314 1.348-.314.579-.877.967-.562.38-1.356.571-.785.19-1.736.19-.43 0-.86-.033-.421-.033-.818-.083-.389-.05-.736-.115-.347-.067-.629-.14v-1.423q.62.231 1.39.364.777.132 1.76.132.712 0 1.208-.107.504-.116.818-.331.323-.223.463-.538.15-.314.15-.719 0-.438-.249-.744-.24-.314-.637-.554-.396-.248-.909-.447l-1.034-.421q-.529-.215-1.041-.463-.505-.257-.902-.596-.396-.347-.644-.81-.24-.463-.24-1.1 0-.553.231-1.09.232-.538.72-.952.487-.421 1.248-.678.769-.256 1.827-.256.273 0 .587.025.323.025.645.074.331.041.645.1.323.057.596.123v1.323q-.637-.182-1.274-.273-.636-.099-1.232-.099-1.265 0-1.86.422-.595.422-.595 1.133 0 .438.24.752.247.314.644.562.397.248.902.455.512.198 1.041.413.53.215 1.034.472.512.256.91.612.396.347.636.818.248.471.248 1.116zM44.364 60.81l-3.91 6.946v3.861h-1.49v-3.894l-3.91-6.912h1.778l2.15 3.952.793 1.587.728-1.438 2.174-4.101zM69.976 71.617h-1.919l-3.15-6.738-.91-2.167V71.617h-1.372V60.811h1.894l3.001 6.383 1.083 2.472v-8.855h1.373zM96.455 71.212q-1.298.538-2.72.538-2.29 0-3.522-1.365-1.224-1.372-1.224-4.051 0-1.298.34-2.348.338-1.05.967-1.778.628-.736 1.521-1.133.893-.397 2-.397.753 0 1.398.133.645.124 1.24.388v1.447q-.587-.322-1.215-.488-.628-.173-1.372-.173-.761 0-1.381.29-.612.28-1.042.826-.43.537-.662 1.323-.231.777-.231 1.778 0 2.1.852 3.166.851 1.067 2.497 1.067.694 0 1.33-.157.637-.166 1.224-.455z"
       id="path4" />
  </g>
  <g
     aria-label="PHOTO"
     style="font-size:16.9333px;line-height:1.56;font-family:consolas;-inkscape-font-specification:'consolas, Normal';letter-spacing:17.2773px;fill:#fff;stroke-width:.264583"
     id="line2">
    <path
       d="M16.867 37.702q0 .662-.248 1.315-.248.645-.769 1.157-.52.513-1.331.835-.81.315-1.935.315h-1.34V45.2H9.774V34.395h3.043q.802 0 1.538.182.735.173 1.29.57.562.397.892 1.025.331.629.331 1.53zm-1.53.066q0-1.042-.686-1.596-.678-.554-1.901-.554h-1.505v4.449h1.372q1.307 0 2.01-.57.71-.571.71-1.729zM43.454 45.201h-1.471v-4.96h-4.54v4.96h-1.471V34.395h1.471v4.572h4.54v-4.572h1.471zM70.497 39.728q0 1.455-.348 2.513-.339 1.059-.926 1.753-.579.686-1.364 1.025-.777.331-1.645.331-1.042 0-1.82-.372-.768-.38-1.281-1.091-.504-.711-.752-1.728-.248-1.026-.248-2.307 0-1.439.339-2.497.339-1.059.917-1.745.587-.694 1.365-1.025.777-.339 1.645-.339 1.042 0 1.81.38.778.38 1.29 1.092.513.703.761 1.72.257 1.017.257 2.29zm-1.53.107q0-.95-.149-1.736-.14-.794-.463-1.364-.322-.57-.835-.885-.504-.314-1.224-.314-.694 0-1.199.339-.496.33-.818.91-.323.57-.48 1.347-.157.769-.157 1.637 0 .96.149 1.753.149.785.463 1.356.322.562.827.876.504.315 1.215.315.695 0 1.2-.331.504-.34.826-.91.33-.578.488-1.347.157-.77.157-1.646zM96.828 35.652h-3.2v9.55h-1.489v-9.55h-3.2v-1.257h7.889zM123.671 39.728q0 1.455-.347 2.513-.34 1.059-.926 1.753-.579.686-1.364 1.025-.778.331-1.646.331-1.042 0-1.819-.372-.769-.38-1.281-1.091-.505-.711-.753-1.728-.248-1.026-.248-2.307 0-1.439.34-2.497.338-1.059.917-1.745.587-.694 1.364-1.025.777-.339 1.646-.339 1.041 0 1.81.38.778.38 1.29 1.092.513.703.76 1.72.257 1.017.257 2.29zm-1.53.107q0-.95-.148-1.736-.14-.794-.463-1.364-.323-.57-.835-.885-.505-.314-1.224-.314-.695 0-1.199.339-.496.33-.819.91-.322.57-.48 1.347-.156.769-.156 1.637 0 .96.149 1.753.148.785.463 1.356.322.562.826.876.505.315 1.216.315.694 0 1.199-.331.504-.34.827-.91.33-.578.487-1.347.158-.77.158-1.646z"
       id="path8" />
  </g>
  <g
     aria-label="SIMPLE"
     style="font-size:16.9333px;line-height:1.56;font-family:consolas;-inkscape-font-specification:'consolas, Normal';letter-spacing:17.2773px;fill:#fff;stroke-width:.264583"
     id="line1">
    <path
       d="M16.445 15.33q0 .768-.314 1.347t-.876.967q-.562.38-1.356.57-.786.191-1.736.191-.43 0-.86-.033-.422-.033-.819-.083-.389-.05-.736-.115-.347-.067-.628-.141v-1.422q.62.231 1.389.364.777.132 1.761.132.711 0 1.207-.108.505-.115.819-.33.322-.223.463-.538.149-.314.149-.719 0-.438-.248-.744-.24-.314-.637-.554-.397-.248-.91-.447l-1.033-.421q-.53-.215-1.042-.463-.504-.257-.901-.596-.397-.347-.645-.81-.24-.463-.24-1.1 0-.554.232-1.091.231-.537.719-.95.488-.423 1.248-.679.77-.256 1.828-.256.273 0 .587.025.322.024.645.074.33.041.645.1.322.057.595.123v1.323q-.637-.182-1.273-.273-.637-.099-1.232-.099-1.265 0-1.86.422-.596.422-.596 1.133 0 .438.24.752.248.314.645.562.397.248.901.455.513.198 1.042.413.529.215 1.033.472.513.256.91.612.397.347.636.818.248.471.248 1.116zM38.7 8.69h-2.488V7.45h6.465v1.24H40.19V17h2.488v1.256h-6.465V17H38.7zM70.282 18.256h-1.44l-.214-6.738-.091-2.588-.504 1.505-1.596 4.299H65.42L63.898 10.6l-.504-1.67-.033 2.703-.19 6.623h-1.39l.53-10.806h1.745l1.455 4.068.471 1.372.455-1.372 1.53-4.068h1.794zM96.365 10.757q0 .661-.249 1.315-.248.645-.768 1.157-.521.513-1.332.835-.81.314-1.934.314h-1.34v3.878H89.27V7.45h3.043q.802 0 1.538.182.736.173 1.29.57.562.397.893 1.025.33.629.33 1.53zm-1.53.066q0-1.042-.686-1.596-.678-.554-1.902-.554h-1.505v4.449h1.373q1.306 0 2.009-.57.71-.571.71-1.729zM122.695 18.256h-6.217V7.45h1.496V17h4.721zM148.944 18.256H142.8V7.45h6.143v1.24h-4.672v3.349h4.49v1.24h-4.49v3.72h4.672z"
       id="path12" />
  </g>
</svg>
